<svg xmlns="http://www.w3.org/2000/svg" width="64" height="64" viewBox="0 0 64 64" fill="none">
  <rect width="64" height="64" rx="14" fill="#DDF3D9"/>
  <path
    d="M18 17C18 14.7909 19.7909 13 22 13H28C30.2091 13 32 14.7909 32 17V34.5C32 40.8513 37.1487 46 43.5 46C45.433 46 47 47.567 47 49.5C47 51.433 45.433 53 43.5 53C33.2827 53 25 44.7173 25 34.5V20H22C19.7909 20 18 18.2091 18 16V17Z"
    fill="#16532F"
  />
  <path
    d="M38 14C40.2091 14 42 15.7909 42 18V31C42 33.2091 40.2091 35 38 35C35.7909 35 34 33.2091 34 31V18C34 15.7909 35.7909 14 38 14Z"
    fill="#16532F"
    opacity="0.9"
  />
</svg>
